<svg xmlns="http://www.w3.org/2000/svg" width="926.431" height="1369.285" viewBox="0 0 926.431 1369.285">
  <g id="Group_69" data-name="Group 69" transform="translate(258.211 -157.938)">
    <g id="Group_53" data-name="Group 53" transform="matrix(0.996, 0.087, -0.087, 0.996, 201.846, -41.168)">
      <ellipse id="Ellipse_22" data-name="Ellipse 22" cx="144.54" cy="150.474" rx="144.54" ry="150.474" transform="translate(20.541 297.318) rotate(-25)" fill="#f5401d"/>
      <ellipse id="Ellipse_20" data-name="Ellipse 20" cx="104.484" cy="107.027" rx="104.484" ry="107.027" transform="translate(-240.173 330.965) rotate(-25)" fill="#f5401d"/>
      <ellipse id="Ellipse_21" data-name="Ellipse 21" cx="85.622" cy="87.953" rx="85.622" ry="87.953" transform="translate(-63.467 269.612) rotate(-25)" fill="#f5401d"/>
      <path id="Path_138" data-name="Path 138" d="M.015,98.853C-1.4-.531,96.51-22.659,145.154,22.066" transform="translate(-21.493 214.218) rotate(9)" fill="none" stroke="#000" stroke-linecap="round" stroke-width="3"/>
      <path id="Path_139" data-name="Path 139" d="M0,16.484C12.062,9.974,18.75,8.2,20.553,7.6c2.855-.958,5.942-1.92,9.036-2.81,25.026-7.194,47.636-5.366,68.759-.5,31.873,7.342,60.335,25.793,89.147,62.726" transform="translate(100.951 255.816) rotate(-21)" fill="none" stroke="#000" stroke-linecap="round" stroke-width="3"/>
      <path id="Path_140" data-name="Path 140" d="M.008,67.753C-.754,49.172,51.093-34.42,152.073,15.887" transform="matrix(0.993, 0.122, -0.122, 0.993, -184.247, 267.189)" fill="none" stroke="#000" stroke-linecap="round" stroke-width="3"/>
      <path id="Path_141" data-name="Path 141" d="M319.7-44.109c174.923-27.758,299.635,97.423,278.552,279.6S418.275,587.85,243.352,615.608-56.283,518.185-35.2,336.009,144.778-16.352,319.7-44.109Z" transform="translate(-318.99 491.499) rotate(-25)" fill="#f5401d"/>
    </g>
    <g id="Group_50" data-name="Group 50" transform="translate(246.691 262.344) rotate(25)">
      <path id="Path_136" data-name="Path 136" d="M210.476,0c116.1,0,209.97,243.009,209.97,354.052s-94.12,201.062-210.223,201.062S0,465.1,0,354.052,94.373,0,210.476,0Z" transform="matrix(-0.809, -0.588, 0.588, -0.809, 273.542, 1265.656)" fill="#ffa957"/>
      <ellipse id="Ellipse_11" data-name="Ellipse 11" cx="133.63" cy="136.971" rx="133.63" ry="136.971" transform="matrix(-0.809, -0.588, 0.588, -0.809, 502.113, 866.287)" fill="#ffa957"/>
      <ellipse id="Ellipse_12" data-name="Ellipse 12" cx="109.688" cy="112.472" rx="109.688" ry="112.472" transform="matrix(-0.809, -0.588, 0.588, -0.809, 297.14, 735.924)" fill="#ffa957"/>
      <ellipse id="Ellipse_13" data-name="Ellipse 13" cx="184.855" cy="192.65" rx="184.855" ry="192.65" transform="matrix(-0.809, -0.588, 0.588, -0.809, 102.903, 991.262)" fill="#ffa957"/>
      <ellipse id="Ellipse_14" data-name="Ellipse 14" cx="141.934" cy="146.512" rx="141.934" ry="146.512" transform="matrix(-0.809, -0.588, 0.588, -0.809, 503.704, 689.199)" fill="#ffa957"/>
      <path id="Path_128" data-name="Path 128" d="M12217.722,1674.113c8.879-53.637,92.089-124.39,165.214-78.061" transform="translate(-12053.213 -1113.678)" fill="none" stroke="#000" stroke-linecap="round" stroke-width="3"/>
      <path id="Path_129" data-name="Path 129" d="M0,100.862C16.773,32.7,122.228-47.775,233.775,35.484" transform="translate(284.747 430.62) rotate(-30)" fill="none" stroke="#000" stroke-linecap="round" stroke-width="3"/>
      <path id="Path_130" data-name="Path 130" d="M-4.6,80.626C26.79,33.2,148.656-44.441,273.251,53.975" transform="matrix(0.999, -0.035, 0.035, 0.999, -80.019, 536.267)" fill="none" stroke="#000" stroke-linecap="round" stroke-width="3"/>
      <path id="Path_134" data-name="Path 134" d="M0,100.862C16.773,32.7,122.228-47.775,233.775,35.484" transform="translate(492.335 445.634) rotate(22)" fill="none" stroke="#000" stroke-linecap="round" stroke-width="3"/>
      <ellipse id="Ellipse_19" data-name="Ellipse 19" cx="164.254" cy="164.254" rx="164.254" ry="164.254" transform="matrix(-0.809, -0.588, 0.588, -0.809, 495.843, 1164.424)" fill="#ffa957"/>
      <path id="Path_137" data-name="Path 137" d="M0,100.862C16.773,32.7,122.228-47.775,233.775,35.484" transform="translate(732.966 989.522) rotate(-179)" fill="none" stroke="#000" stroke-linecap="round" stroke-width="3"/>
    </g>
  </g>
</svg>
