<svg xmlns="http://www.w3.org/2000/svg" width="50.65" height="44.318" viewBox="0 0 50.65 44.318">
  <path id="Icon_awesome-hamburger" data-name="Icon awesome-hamburger" d="M45.9,24.409H4.748a4.748,4.748,0,0,0,0,9.5H45.9a4.748,4.748,0,0,0,0-9.5Zm1.583,12.662H3.166a1.583,1.583,0,0,0-1.583,1.583v1.583a6.331,6.331,0,0,0,6.331,6.331H42.736a6.331,6.331,0,0,0,6.331-6.331V38.654A1.583,1.583,0,0,0,47.484,37.072ZM5.8,21.244H44.849c3.42,0,5.4-4.343,3.445-7.506C44.318,7.315,35.569,2.26,25.325,2.25,15.082,2.26,6.331,7.315,2.356,13.736.4,16.9,2.381,21.244,5.8,21.244Zm32.186-11.08A1.583,1.583,0,1,1,36.4,11.747,1.583,1.583,0,0,1,37.987,10.164ZM25.325,7a1.583,1.583,0,1,1-1.583,1.583A1.583,1.583,0,0,1,25.325,7ZM12.662,10.164a1.583,1.583,0,1,1-1.583,1.583A1.583,1.583,0,0,1,12.662,10.164Z" transform="translate(0 -2.25)" fill="#393e5b"/>
</svg>
