<svg xmlns="http://www.w3.org/2000/svg" width="43.724" height="43.724" viewBox="0 0 43.724 43.724">
  <path id="Icon_awesome-minus-square" data-name="Icon awesome-minus-square" d="M39.039,2.25H4.685A4.686,4.686,0,0,0,0,6.935V41.289a4.686,4.686,0,0,0,4.685,4.685H39.039a4.686,4.686,0,0,0,4.685-4.685V6.935A4.686,4.686,0,0,0,39.039,2.25ZM8.979,28.016a1.175,1.175,0,0,1-1.171-1.171V21.379a1.175,1.175,0,0,1,1.171-1.171H34.745a1.175,1.175,0,0,1,1.171,1.171v5.465a1.175,1.175,0,0,1-1.171,1.171Z" transform="translate(0 -2.25)" fill="#f5401d"/>
</svg>
