<svg xmlns="http://www.w3.org/2000/svg" width="43.724" height="43.724" viewBox="0 0 43.724 43.724">
  <path id="Icon_awesome-plus-square" data-name="Icon awesome-plus-square" d="M39.039,2.25H4.685A4.686,4.686,0,0,0,0,6.935V41.289a4.686,4.686,0,0,0,4.685,4.685H39.039a4.686,4.686,0,0,0,4.685-4.685V6.935A4.686,4.686,0,0,0,39.039,2.25ZM35.916,26.845a1.175,1.175,0,0,1-1.171,1.171H25.766v8.979a1.175,1.175,0,0,1-1.171,1.171H19.129a1.175,1.175,0,0,1-1.171-1.171V28.016H8.979a1.175,1.175,0,0,1-1.171-1.171V21.379a1.175,1.175,0,0,1,1.171-1.171h8.979V11.229a1.175,1.175,0,0,1,1.171-1.171h5.465a1.175,1.175,0,0,1,1.171,1.171v8.979h8.979a1.175,1.175,0,0,1,1.171,1.171Z" transform="translate(0 -2.25)" fill="#ffa957"/>
</svg>
