<svg xmlns="http://www.w3.org/2000/svg" width="44.308" height="44.318" viewBox="0 0 44.308 44.318">
  <path id="Icon_ionic-ios-pricetag" data-name="Icon ionic-ios-pricetag" d="M44.625,3.375H31.532a1.54,1.54,0,0,0-1.087.447L4.27,30a3.074,3.074,0,0,0,0,4.336L16.734,46.8a3.074,3.074,0,0,0,4.336,0L47.235,20.634a1.54,1.54,0,0,0,.447-1.087V6.443A3.053,3.053,0,0,0,44.625,3.375ZM39.543,15.286a3.408,3.408,0,1,1,3.015-3.015A3.412,3.412,0,0,1,39.543,15.286Z" transform="translate(-3.375 -3.375)" fill="#393e5b"/>
</svg>
